<?xml version="1.0" encoding="UTF-8"?>
<svg version="1.1" xmlns="http://www.w3.org/2000/svg" width="500" height="500">
<path d="M0 0 C6.05783486 5.26274404 9.6667577 12.53187811 10.8125 20.4375 C11 24 11 24 10 26 C3.07 26 -3.86 26 -11 26 C-11.70125 24.411875 -12.4025 22.82375 -13.125 21.1875 C-14.89414329 17.63918994 -15.70999426 16.19530999 -19.0625 13.9375 C-27.09050134 11.37537191 -33.98675971 11.27208841 -42 14 C-42 14.66 -42 15.32 -42 16 C-42.66 16 -43.32 16 -44 16 C-45.38336501 23.43303804 -45.38336501 23.43303804 -43.1875 30.4375 C-37.68986638 35.62478334 -29.81344115 37.06860969 -22.76098633 39.10864258 C2.2622022 46.38360681 2.2622022 46.38360681 10 58 C14.11463928 65.57372586 14.19290558 74.77008625 12.30859375 83.03125 C10.39674927 88.85477629 7.77117265 94.0058469 3 98 C2.34 98 1.68 98 1 98 C1 98.66 1 99.32 1 100 C-0.85014053 100.96608323 -2.70533473 101.9224907 -4.5625 102.875 C-5.59503906 103.40867187 -6.62757813 103.94234375 -7.69140625 104.4921875 C-20.17024055 110.17911789 -36.40430604 109.96925594 -49.24609375 105.28125 C-53.45879616 103.32129767 -57.53695642 101.13195156 -61 98 C-61 97.34 -61 96.68 -61 96 C-61.59425781 95.77054687 -62.18851563 95.54109375 -62.80078125 95.3046875 C-67.23785282 92.67239282 -69.15221282 87.65093181 -71 83 C-71.72808067 78.91805097 -71.90197584 75.16602673 -72 71 C-64.74 71 -57.48 71 -50 71 C-46 80 -46 80 -46 83 C-45.2575 83.28875 -44.515 83.5775 -43.75 83.875 C-41 85 -41 85 -39.1171875 86.0234375 C-32.40118698 89.12122372 -23.81624656 88.48962197 -17 86 C-14.27811233 83.77805088 -12.56011785 82.1202357 -11 79 C-10.61160102 74.96065064 -10.76085839 72.50817593 -12.5 68.8125 C-17.60660298 63.06757165 -24.14441505 61.56177196 -31.40234375 59.71484375 C-34.75517666 58.79218447 -37.82539626 57.41093499 -41 56 C-42.45499249 55.53116909 -43.91361107 55.07349522 -45.375 54.625 C-53.39282321 51.97515724 -60.44901852 48.34520111 -65 41 C-69.73808164 31.39099331 -70.41383629 22.55195735 -67.0546875 12.39453125 C-64.79941919 7.2742369 -61.17914459 2.71353337 -57 -1 C-56.34 -1 -55.68 -1 -55 -1 C-55 -1.66 -55 -2.32 -55 -3 C-37.15049017 -11.69266909 -16.71626485 -11.68488908 0 0 Z " fill="#201F1F" transform="translate(188,167)"/>
<path d="M0 0 C7.92 0 15.84 0 24 0 C24.94401042 2.89713542 25.88802083 5.79427083 26.83203125 8.69140625 C27.96164844 12.01866914 27.96164844 12.01866914 29.41259766 15.23339844 C31.01443824 18.94334598 32.318247 22.73299217 33.56640625 26.57421875 C34.05225705 28.04909547 34.53818127 29.523948 35.02416992 30.9987793 C35.40078262 32.14725845 35.40078262 32.14725845 35.78500366 33.31893921 C39.94504439 45.99206559 44.20423404 58.62492034 48.6875 71.1875 C49.109104 72.3736792 49.53070801 73.5598584 49.96508789 74.78198242 C51.37782878 79.73623112 51.37782878 79.73623112 54 84 C58.59346843 71.4730562 63.16955562 58.95872484 67.05908203 46.19213867 C69.024272 39.76000567 71.34215919 33.51681257 73.9375 27.3125 C75.91181985 22.41437823 77.47059495 17.43168654 78.97265625 12.37109375 C80.23686979 8.22274287 81.62861198 4.11416405 83 0 C90.92 0 98.84 0 107 0 C105.8762745 7.86607853 105.8762745 7.86607853 104.6171875 10.91796875 C104.34084473 11.60391113 104.06450195 12.28985352 103.77978516 12.99658203 C103.48120605 13.71958496 103.18262695 14.44258789 102.875 15.1875 C100.2959532 21.61717928 97.87665433 28.07354312 95.625 34.625 C92.07253461 44.90202316 88.27072384 55.07645522 84.42041016 65.24511719 C83.0627593 68.8315346 81.71088272 72.4201159 80.35932922 76.00883484 C79.09734203 79.35896255 77.83376697 82.70848998 76.56985474 86.05789185 C75.94464851 87.71518004 75.31986576 89.37262806 74.69552612 91.03024292 C73.81158942 93.37621964 72.92557672 95.72140253 72.0390625 98.06640625 C71.77687424 98.76343658 71.51468597 99.46046692 71.24455261 100.17861938 C70.8675396 101.17410294 70.8675396 101.17410294 70.48291016 102.18969727 C70.16055893 103.04374901 70.16055893 103.04374901 69.83169556 103.91505432 C68.61394926 106.96777578 67.29467163 109.97909953 66 113 C57.42 113 48.84 113 40 113 C38.79557292 109.58203125 37.59114583 106.1640625 36.38671875 102.74609375 C35.48261273 100.3037341 34.51733467 97.88290343 33.484375 95.4921875 C31.47244382 90.75885467 29.95424062 85.9040938 28.37890625 81.01171875 C27.10741132 77.19819176 25.62225141 73.48648417 24.11352539 69.76147461 C17.50102027 53.36286785 11.4601325 36.77356054 5.875 20 C5.63530487 19.28254608 5.39560974 18.56509216 5.14865112 17.82589722 C1.18843451 5.94217253 1.18843451 5.94217253 0 0 Z " fill="#1F1E1E" transform="translate(199,160)"/>
<path d="M0 0 C0.12481659 4.1074259 0.21490108 8.21409807 0.2746582 12.32299805 C0.29960121 13.71674866 0.33356946 15.11037121 0.37719727 16.50366211 C0.64686708 25.34565952 0.07296936 31.59715581 -5 39 C-6.0219137 40.98889225 -7.02626123 42.98708351 -8 45 C-6.79053711 44.9685791 -6.79053711 44.9685791 -5.55664062 44.93652344 C-1.87122273 44.85290827 1.81399494 44.80119451 5.5 44.75 C7.40265625 44.69972656 7.40265625 44.69972656 9.34375 44.6484375 C16.77428034 44.57103614 21.7014834 44.96442349 28 49 C28.886875 49.556875 29.77375 50.11375 30.6875 50.6875 C36.69473455 56.69473455 38.96026777 64.32366336 40.6875 72.4375 C40.88666016 73.31470703 41.08582031 74.19191406 41.29101562 75.09570312 C41.88227826 77.7263372 42.44617574 80.36124796 43 83 C43.18981445 83.89332031 43.37962891 84.78664063 43.57519531 85.70703125 C45.59015288 95.42496613 46.19645611 102.23098032 41 111 C40.34 111 39.68 111 39 111 C39 111.66 39 112.32 39 113 C33.11912507 117.18195551 28.15824209 117.90797761 21 117 C18.1640625 115.9765625 18.1640625 115.9765625 16 115 C16 114.34 16 113.68 16 113 C15.443125 112.79375 14.88625 112.5875 14.3125 112.375 C11.16420016 110.50303793 9.20555087 107.85671351 7 105 C3.70095595 100.41179901 3.70095595 100.41179901 -1.37915039 98.69604492 C-14.07480986 97.18847247 -14.07480986 97.18847247 -26.02636719 100.18212891 C-29.26989135 103.28855985 -31.0351631 106.98671611 -33 111 C-33.66 111 -34.32 111 -35 111 C-35.33 111.99 -35.66 112.98 -36 114 C-41.77686002 117.39076567 -47.39226157 117.85764157 -54 117 C-58.85221494 115.47346047 -62.32986349 112.25369699 -65.0625 108.046875 C-69.31338057 98.76578575 -66.29542814 87.52409613 -63.80859375 78.18359375 C-63.26003927 76.02382609 -62.77482753 73.84717089 -62.34765625 71.66015625 C-60.29875829 61.27018259 -56.70326885 54.41891077 -48.02734375 48.19140625 C-43.71271672 45.65583545 -40.03731455 44.73960968 -35.04296875 44.5859375 C-33.37524414 44.52792969 -33.37524414 44.52792969 -31.67382812 44.46875 C-30.52333984 44.4378125 -29.37285156 44.406875 -28.1875 44.375 C-26.43276367 44.31699219 -26.43276367 44.31699219 -24.64257812 44.2578125 C-21.76187436 44.1637487 -18.88117346 44.07810123 -16 44 C-15.71125 42.73414063 -15.4225 41.46828125 -15.125 40.1640625 C-14.23012468 36.24099304 -12.60179715 34.08963412 -10 31 C-7.89856904 26.07957629 -7.78381236 21.85969424 -7.9375 16.625 C-8.07511271 10.95739502 -7.81790128 5.61752353 -7 0 C-3.86650268 -1.04449911 -3.01031744 -0.93423645 0 0 Z M-47 57 C-47 57.66 -47 58.32 -47 59 C-47.66 59 -48.32 59 -49 59 C-52.27396874 64.99645874 -54.19029311 70.66138849 -55.6875 77.3125 C-55.90027588 78.23877197 -56.11305176 79.16504395 -56.33227539 80.11938477 C-59.56619365 92.70903078 -59.56619365 92.70903078 -57 105 C-54.22777427 108.20538601 -52.46801146 109.86951009 -48.1875 110.25 C-44.61914323 109.97012888 -42.82380222 109.15937817 -40 107 C-40 106.34 -40 105.68 -40 105 C-39.34 105 -38.68 105 -38 105 C-35.93599174 102.27532685 -34.06635094 99.44362791 -32.16796875 96.6015625 C-29.17326539 93.00791847 -26.59691443 92.15327699 -21.97314453 91.70947266 C-18.35671917 91.66030915 -14.74178457 91.62869437 -11.125 91.625 C-9.87074219 91.60050781 -8.61648438 91.57601562 -7.32421875 91.55078125 C-0.34701018 91.52863138 4.45554827 91.58399842 10 96 C12.29296875 98.47265625 12.29296875 98.47265625 14.1875 101.0625 C17.4972779 105.54519308 19.90751672 108.41875464 25.375 109.9375 C29.90864225 110.01566625 31.60016556 108.92543893 35 106 C40.00203728 97.8598671 36.17802333 86.84266098 34.1875 78.25 C33.92646484 77.05761719 33.66542969 75.86523438 33.39648438 74.63671875 C31.11282744 63.61542694 31.11282744 63.61542694 23.6875 55.6875 C22.94886719 55.19636719 22.21023438 54.70523438 21.44921875 54.19921875 C15.50652977 51.28948109 8.70128775 51.82463222 2.23046875 51.796875 C1.19489334 51.79117493 0.15931793 51.78547485 -0.90763855 51.77960205 C-3.09377021 51.77017929 -5.2799159 51.76362893 -7.46606445 51.75976562 C-10.79078214 51.75006338 -14.11488037 51.71901487 -17.43945312 51.6875 C-19.57030886 51.68096864 -21.70116898 51.67571869 -23.83203125 51.671875 C-24.81669876 51.6595282 -25.80136627 51.6471814 -26.81587219 51.63446045 C-34.3255502 51.65841207 -40.68109347 52.78739565 -47 57 Z " fill="#1F1C1D" transform="translate(355,160)"/>
<path d="M0 0 C0.66 0.99 1.32 1.98 2 3 C1.34 3 0.68 3 0 3 C0.495 6.465 0.495 6.465 1 10 C0.22285645 10.02505615 -0.55428711 10.0501123 -1.35498047 10.07592773 C-4.86183069 10.19166796 -8.36839745 10.31449352 -11.875 10.4375 C-13.09832031 10.47681641 -14.32164062 10.51613281 -15.58203125 10.55664062 C-17.33193359 10.61948242 -17.33193359 10.61948242 -19.1171875 10.68359375 C-20.19597168 10.72025146 -21.27475586 10.75690918 -22.38623047 10.79467773 C-24.98069536 10.83376643 -24.98069536 10.83376643 -27 12 C-24.9927092 15.0109362 -24.16115776 15.63016497 -21 17 C-25 18.33333333 -29 19.66666667 -33 21 C-33 21.66 -33 22.32 -33 23 C-33.66 23 -34.32 23 -35 23 C-40.80150922 36.92362212 -46.94172589 56.17482233 -42 71 C-38.30109689 73.00797598 -35.16541782 73.35450364 -31 73 C-27.79523376 71.79255056 -27.79523376 71.79255056 -26 69 C-25.34 69 -24.68 69 -24 69 C-23.79375 68.319375 -23.5875 67.63875 -23.375 66.9375 C-21.25795901 62.41473061 -18.36960323 58.17109534 -13.80517578 55.9152832 C-10.51797846 54.84272422 -7.84207252 54.77313176 -4.38671875 54.8046875 C-3.13955078 54.81113281 -1.89238281 54.81757813 -0.60742188 54.82421875 C1.33293945 54.84935547 1.33293945 54.84935547 3.3125 54.875 C4.62541016 54.88402344 5.93832031 54.89304688 7.29101562 54.90234375 C10.52752913 54.92588203 13.76367149 54.9587648 17 55 C17 55.33 17 55.66 17 56 C8.09 56 -0.82 56 -10 56 C-10 58.31 -10 60.62 -10 63 C-11.8984375 66.30859375 -11.8984375 66.30859375 -14.375 69.4375 C-14.7875 69.97826172 -15.2 70.51902344 -15.625 71.07617188 C-16.68927729 72.43398371 -17.83908305 73.72382957 -19 75 C-19.66 75 -20.32 75 -21 75 C-21.33 75.99 -21.66 76.98 -22 78 C-27.77686002 81.39076567 -33.39226157 81.85764157 -40 81 C-44.85221494 79.47346047 -48.32986349 76.25369699 -51.0625 72.046875 C-55.31338057 62.76578575 -52.29542814 51.52409613 -49.80859375 42.18359375 C-49.26003927 40.02382609 -48.77482753 37.84717089 -48.34765625 35.66015625 C-46.29875829 25.27018259 -42.70326885 18.41891077 -34.02734375 12.19140625 C-29.71271672 9.65583545 -26.03731455 8.73960968 -21.04296875 8.5859375 C-19.37524414 8.52792969 -19.37524414 8.52792969 -17.67382812 8.46875 C-16.52333984 8.4378125 -15.37285156 8.406875 -14.1875 8.375 C-12.43276367 8.31699219 -12.43276367 8.31699219 -10.64257812 8.2578125 C-7.76187436 8.1637487 -4.88117346 8.07810123 -2 8 C-1.34 5.36 -0.68 2.72 0 0 Z " fill="#323030" transform="translate(341,196)"/>
<path d="M0 0 C2.72869407 0.03287583 5.2966618 0.56397771 8 1 C8.33 3.64 8.66 6.28 9 9 C10.423125 8.938125 10.423125 8.938125 11.875 8.875 C15 9 15 9 17 11 C17.125 14.625 17.125 14.625 17 18 C14.69 18.66 12.38 19.32 10 20 C9.34 22.64 8.68 25.28 8 28 C6.52093108 28.02689216 5.04172517 28.04634621 3.5625 28.0625 C2.32693359 28.07990234 2.32693359 28.07990234 1.06640625 28.09765625 C-1 28 -1 28 -2 27 C-2.14115161 24.32941149 -2.04247107 21.67567762 -2 19 C-3.7015625 19.0309375 -3.7015625 19.0309375 -5.4375 19.0625 C-9 19 -9 19 -10 18 C-10.1875 14.5625 -10.1875 14.5625 -10 11 C-7.4345406 8.4345406 -5.52313332 8.45953913 -2 8 C-2.04125 7.05125 -2.0825 6.1025 -2.125 5.125 C-2 2 -2 2 0 0 Z " fill="#2D2B2A" transform="translate(317,220)"/>
<path d="M0 0 C4.18084291 -0.09922585 8.36105371 -0.17163374 12.54272461 -0.21972656 C13.96374457 -0.23978421 15.38468259 -0.26703778 16.80541992 -0.30175781 C18.85355895 -0.35054011 20.90060275 -0.37302539 22.94921875 -0.390625 C24.17987061 -0.41157227 25.41052246 -0.43251953 26.6784668 -0.45410156 C31.66662222 0.22785133 33.91135639 2.88193359 37.3125 6.375 C39.32346394 9.50316613 39.33949303 11.35044994 39 15 C39.99 15 40.98 15 42 15 C42.93423645 18.01031744 43.04449911 18.86650268 42 22 C36.67602875 20.59071349 34.24700776 17.1593901 31 13 C28.43638713 9.46162742 28.43638713 9.46162742 25 7 C23.11527141 6.84655791 21.22572126 6.75040429 19.3359375 6.68359375 C17.65371094 6.62075195 17.65371094 6.62075195 15.9375 6.55664062 C14.761875 6.51732422 13.58625 6.47800781 12.375 6.4375 C11.19164062 6.39431641 10.00828125 6.35113281 8.7890625 6.30664062 C5.85949672 6.20032574 2.92984412 6.09829358 0 6 C-1.125 2.25 -1.125 2.25 0 0 Z " fill="#353333" transform="translate(331,252)"/>
<path d="M0 0 C0.12481659 4.1074259 0.21490108 8.21409807 0.2746582 12.32299805 C0.29960121 13.71674866 0.33356946 15.11037121 0.37719727 16.50366211 C0.63686413 25.01768043 0.54364016 32.09086338 -5 39 C-5.98056823 40.01906131 -6.97516932 41.02546315 -8 42 C-8.33 39.69 -8.66 37.38 -9 35 C-10.98 35.495 -10.98 35.495 -13 36 C-12.6390625 35.48695313 -12.278125 34.97390625 -11.90625 34.4453125 C-7.44227757 27.07975799 -7.59425888 20.68317675 -7.921875 12.3671875 C-8.07709312 8.14033305 -7.62556733 4.17992719 -7 0 C-3.86650268 -1.04449911 -3.01031744 -0.93423645 0 0 Z " fill="#211D1E" transform="translate(355,160)"/>
<path d="M0 0 C2.72869407 0.03287583 5.2966618 0.56397771 8 1 C8.33 3.64 8.66 6.28 9 9 C10.423125 8.938125 10.423125 8.938125 11.875 8.875 C15 9 15 9 17 11 C17.125 14.625 17.125 14.625 17 18 C14.69 18.66 12.38 19.32 10 20 C9.67 21.65 9.34 23.3 9 25 C8.01 24.67 7.02 24.34 6 24 C5.29618843 22.01276732 4.6288189 20.01222047 4 18 C3.34 17.67 2.68 17.34 2 17 C2.33 16.34 2.66 15.68 3 15 C3.99 15 4.98 15 6 15 C6 14.21625 6 13.4325 6 12.625 C6 11.08333333 6 9.54166667 6 8 C3.83125748 8.50603992 2.00032373 8.99983813 0 10 C0 9.34 0 8.68 0 8 C-0.66 8 -1.32 8 -2 8 C-2.125 5.125 -2.125 5.125 -2 2 C-1.34 1.34 -0.68 0.68 0 0 Z " fill="#22201F" transform="translate(317,220)"/>
<path d="M0 0 C0.33 0.66 0.66 1.32 1 2 C1.80630859 1.97905273 2.61261719 1.95810547 3.44335938 1.93652344 C7.12877727 1.85290827 10.81399494 1.80119451 14.5 1.75 C16.40265625 1.69972656 16.40265625 1.69972656 18.34375 1.6484375 C25.77428034 1.57103614 30.7014834 1.96442349 37 6 C37.886875 6.556875 38.77375 7.11375 39.6875 7.6875 C42.94265043 10.94265043 45.26830456 14.72848458 47 19 C46.67 19.66 46.34 20.32 46 21 C45.34 20.34 44.68 19.68 44 19 C41.91666667 19.16666667 41.91666667 19.16666667 40 20 C39.67 20.66 39.34 21.32 39 22 C38.7525 21.05125 38.505 20.1025 38.25 19.125 C37.33509108 15.97210364 37.33509108 15.97210364 35.1875 14.8125 C34.465625 14.544375 33.74375 14.27625 33 14 C32.195625 13.484375 31.39125 12.96875 30.5625 12.4375 C27.97938206 10.98843384 25.91240988 10.41605855 23 10 C23.66 9.34 24.32 8.68 25 8 C25.33 7.01 25.66 6.02 26 5 C26 5.66 26 6.32 26 7 C26.99 6.67 27.98 6.34 29 6 C29.33 5.34 29.66 4.68 30 4 C15.15 3.505 15.15 3.505 0 3 C0 2.01 0 1.02 0 0 Z " fill="#403D3E" transform="translate(346,203)"/>
<path d="M0 0 C8.58 0 17.16 0 26 0 C25.67 0.66 25.34 1.32 25 2 C25.66 3.32 26.32 4.64 27 6 C18.09 6 9.18 6 0 6 C-1 2 -1 2 0 0 Z " fill="#171615" transform="translate(331,252)"/>
<path d="M0 0 C0.66 0.99 1.32 1.98 2 3 C1.34 3 0.68 3 0 3 C0.495 6.465 0.495 6.465 1 10 C0.22285645 10.02505615 -0.55428711 10.0501123 -1.35498047 10.07592773 C-4.86183069 10.19166796 -8.36839745 10.31449352 -11.875 10.4375 C-13.09832031 10.47681641 -14.32164062 10.51613281 -15.58203125 10.55664062 C-17.33193359 10.61948242 -17.33193359 10.61948242 -19.1171875 10.68359375 C-20.19597168 10.72025146 -21.27475586 10.75690918 -22.38623047 10.79467773 C-24.98069536 10.83376643 -24.98069536 10.83376643 -27 12 C-24.9927092 15.0109362 -24.16115776 15.63016497 -21 17 C-22.41396902 17.50757862 -23.83131729 18.00574925 -25.25 18.5 C-26.03890625 18.7784375 -26.8278125 19.056875 -27.640625 19.34375 C-30 20 -30 20 -34 20 C-36 18 -36 18 -36.125 15.625 C-34.69060902 12.27808772 -32.77597783 11.37301355 -29.55810547 9.84716797 C-24.50854098 8.17490334 -19.27455159 8.31646056 -14 8.25 C-12.84371094 8.22035156 -11.68742187 8.19070312 -10.49609375 8.16015625 C-7.66399438 8.08993891 -4.83269527 8.03700368 -2 8 C-1.34 5.36 -0.68 2.72 0 0 Z " fill="#413E3F" transform="translate(341,196)"/>
<path d="M0 0 C1.56646605 2.68537037 2.23628096 5.10670981 2.8125 8.125 C3.23082707 10.20300443 3.23082707 10.20300443 4 12 C6.48313064 13.59688639 6.48313064 13.59688639 9 14 C7.68 14.33 6.36 14.66 5 15 C4.67 16.32 4.34 17.64 4 19 C1 19 1 19 -1.5625 16.6875 C-5.32095792 12.54355921 -6.24609584 10.53715631 -6 5 C-5.01 5.33 -4.02 5.66 -3 6 C-2.3125 8.0625 -2.3125 8.0625 -2 10 C-1.34 10 -0.68 10 0 10 C-0.2784375 8.9171875 -0.2784375 8.9171875 -0.5625 7.8125 C-1.01995307 4.87173027 -0.73516357 2.85896942 0 0 Z " fill="#343234" transform="translate(295,255)"/>
<path d="M0 0 C3.0625 0.3125 3.0625 0.3125 5 1.4375 C6.58763015 4.23920027 5.80320176 6.28235644 5.0625 9.3125 C3.0825 9.9725 1.1025 10.6325 -0.9375 11.3125 C-4.83597716 8.0231599 -4.83597716 8.0231599 -5.3125 4.6875 C-4.73164322 1.00874036 -3.64121304 0.38736309 0 0 Z " fill="#565555" transform="translate(367.9375,238.6875)"/>
<path d="M0 0 C0.928125 0.103125 1.85625 0.20625 2.8125 0.3125 C2.8125 0.9725 2.8125 1.6325 2.8125 2.3125 C3.4725 2.3125 4.1325 2.3125 4.8125 2.3125 C5 5.6875 5 5.6875 4.8125 9.3125 C1.8125 11.3125 1.8125 11.3125 -0.75 11 C-3.1875 10.3125 -3.1875 10.3125 -5.1875 9.3125 C-6 7.5625 -6 7.5625 -6.1875 5.3125 C-4.70523464 1.47604849 -4.19853803 0.41162138 0 0 Z " fill="#262223" transform="translate(359.1875,228.6875)"/>
<path d="M0 0 C1.875 1.6875 1.875 1.6875 3 4 C2.75925978 7.37036311 2.41201979 8.58798021 0 11 C-2.84602594 11.36487512 -4.3864306 11.40199375 -6.8125 9.8125 C-8.42525784 7.35092224 -8.4334014 5.88934264 -8 3 C-5.86922119 -0.25224135 -3.7535559 -0.65687228 0 0 Z " fill="#1B1819" transform="translate(371,219)"/>
<path d="M0 0 C0.12462322 5.73266804 -0.3583034 11.30494264 -1 17 C-1.99 17.33 -2.98 17.66 -4 18 C-4.103125 17.21625 -4.20625 16.4325 -4.3125 15.625 C-4.77595022 12.66954819 -4.77595022 12.66954819 -8 11 C-7.34 7.7 -6.68 4.4 -6 1 C-3 0 -3 0 0 0 Z " fill="#131012" transform="translate(296,248)"/>
<path d="M0 0 C11.04528196 -0.13379211 21.98080785 0.23629361 33 1 C32.67 1.66 32.34 2.32 32 3 C16.49 3 0.98 3 -15 3 C-15 2.67 -15 2.34 -15 2 C-10.05 2 -5.1 2 0 2 C0 1.34 0 0.68 0 0 Z " fill="#7B7B7A" transform="translate(336,210)"/>
<path d="M0 0 C2.5625 0.25 2.5625 0.25 5.5625 2.25 C5.9696827 5.43959781 6.07733719 7.41000247 4.375 10.1875 C2.5625 11.25 2.5625 11.25 0 11 C-2.4375 10.25 -2.4375 10.25 -4.4375 9.25 C-4.5625 5.875 -4.5625 5.875 -4.4375 2.25 C-2.4375 0.25 -2.4375 0.25 0 0 Z " fill="#392F31" transform="translate(377.4375,228.75)"/>
<path d="M0 0 C1.5 1.375 1.5 1.375 3 3 C3 3.66 3 4.32 3 5 C3.99 5 4.98 5 6 5 C4.125 10.75 4.125 10.75 3 13 C2.34 13 1.68 13 1 13 C1 13.66 1 14.32 1 15 C0.01 15 -0.98 15 -2 15 C-2 14.34 -2 13.68 -2 13 C-2.66 13 -3.32 13 -4 13 C-3.50269348 8.02693484 -2.44697666 4.36200187 0 0 Z " fill="#222120" transform="translate(393,258)"/>
<path d="M0 0 C0.33 0 0.66 0 1 0 C1.63328165 8.31709896 1.10815194 14.22270545 -4 21 C-4.97686097 22.02261559 -5.97025835 23.03065376 -7 24 C-7.33 21.69 -7.66 19.38 -8 17 C-9.32 17.33 -10.64 17.66 -12 18 C-10.68 15.69 -9.36 13.38 -8 11 C-7.67 11.66 -7.34 12.32 -7 13 C-3.45481116 11.60240095 -3.45481116 11.60240095 0 10 C0 6.7 0 3.4 0 0 Z " fill="#3C393A" transform="translate(354,178)"/>
<path d="M0 0 C1.25361328 0.00322266 2.50722656 0.00644531 3.79882812 0.00976562 C5.76432617 0.02233398 5.76432617 0.02233398 7.76953125 0.03515625 C9.10481606 0.04017308 10.44010266 0.04473566 11.77539062 0.04882812 C15.04431598 0.0606293 18.31315116 0.07709328 21.58203125 0.09765625 C21.58203125 0.42765625 21.58203125 0.75765625 21.58203125 1.09765625 C12.67203125 1.09765625 3.76203125 1.09765625 -5.41796875 1.09765625 C-5.41796875 3.40765625 -5.41796875 5.71765625 -5.41796875 8.09765625 C-6.77785262 10.5794443 -8.41285423 12.04241387 -10.41796875 14.09765625 C-11.07796875 12.77765625 -11.73796875 11.45765625 -12.41796875 10.09765625 C-11.75796875 10.09765625 -11.09796875 10.09765625 -10.41796875 10.09765625 C-10.76241756 7.6249886 -10.76241756 7.6249886 -11.41796875 5.09765625 C-12.07796875 4.76765625 -12.73796875 4.43765625 -13.41796875 4.09765625 C-8.8923343 0.50835996 -5.7297652 -0.02592654 0 0 Z " fill="#524D4C" transform="translate(336.41796875,250.90234375)"/>
<path d="M0 0 C1.0625 1.8125 1.0625 1.8125 2 4 C1.67 4.99 1.34 5.98 1 7 C0.67 7 0.34 7 0 7 C0.12375 8.11375 0.12375 8.11375 0.25 9.25 C-0.07105184 12.78157027 -1.35265617 13.76630364 -4 16 C-4 15.34 -4 14.68 -4 14 C-4.99 14 -5.98 14 -7 14 C-7.33 14.66 -7.66 15.32 -8 16 C-8.66 16 -9.32 16 -10 16 C-9.67 14.35 -9.34 12.7 -9 11 C-8.34 11 -7.68 11 -7 11 C-7 10.34 -7 9.68 -7 9 C-6.01 8.34 -5.02 7.68 -4 7 C-3.30899447 5.00827818 -2.64097297 3.00838196 -2 1 C-1.34 0.67 -0.68 0.34 0 0 Z " fill="#221E1D" transform="translate(325,255)"/>
<path d="M0 0 C5.66480252 3.03001065 8.66462243 6.98146477 11 13 C10.67 13.66 10.34 14.32 10 15 C9.34 14.34 8.68 13.68 8 13 C5.91666667 13.16666667 5.91666667 13.16666667 4 14 C3.67 14.66 3.34 15.32 3 16 C2.731875 15.030625 2.46375 14.06125 2.1875 13.0625 C1.795625 12.051875 1.40375 11.04125 1 10 C0.01 9.67 -0.98 9.34 -2 9 C-0.68 8.67 0.64 8.34 2 8 C2.33 6.35 2.66 4.7 3 3 C2.01 3.33 1.02 3.66 0 4 C0 2.68 0 1.36 0 0 Z " fill="#3B3938" transform="translate(382,209)"/>
<path d="M0 0 C0.33 0 0.66 0 1 0 C1.33 1.65 1.66 3.3 2 5 C2.33 4.34 2.66 3.68 3 3 C3.66 3 4.32 3 5 3 C5.33 2.34 5.66 1.68 6 1 C6.66 0.67 7.32 0.34 8 0 C7.4618629 5.69051363 6.8599867 11.34865884 6 17 C5.67 17 5.34 17 5 17 C5 14.69 5 12.38 5 10 C3.02 10.33 1.04 10.66 -1 11 C-1.33 11.99 -1.66 12.98 -2 14 C-1.33333333 9.33333333 -0.66666667 4.66666667 0 0 Z " fill="#494444" transform="translate(291,238)"/>
<path d="M0 0 C2.72869407 0.03287583 5.2966618 0.56397771 8 1 C8 3.31 8 5.62 8 8 C6.8553125 7.938125 6.8553125 7.938125 5.6875 7.875 C2.77281584 7.77919176 2.77281584 7.77919176 0 10 C0 9.34 0 8.68 0 8 C-0.66 8 -1.32 8 -2 8 C-2.125 5.125 -2.125 5.125 -2 2 C-1.34 1.34 -0.68 0.68 0 0 Z " fill="#1C1918" transform="translate(317,220)"/>
<path d="M0 0 C1 3 1 3 -0.3125 5.6875 C-0.869375 6.450625 -1.42625 7.21375 -2 8 C-2.66 8 -3.32 8 -4 8 C-4 8.66 -4 9.32 -4 10 C-4.66 10 -5.32 10 -6 10 C-5.67 11.32 -5.34 12.64 -5 14 C-3.68 13.67 -2.36 13.34 -1 13 C-1.6875 15.4375 -1.6875 15.4375 -3 18 C-5.5 18.875 -5.5 18.875 -8 19 C-8.66 18.67 -9.32 18.34 -10 18 C-10 16.68 -10 15.36 -10 14 C-10.66 13.67 -11.32 13.34 -12 13 C-11.360625 12.71125 -10.72125 12.4225 -10.0625 12.125 C-7.84793921 11.17176549 -7.84793921 11.17176549 -7 9 C-6.34 9 -5.68 9 -5 9 C-4.5978125 7.88625 -4.5978125 7.88625 -4.1875 6.75 C-3.05770579 4.13363446 -1.79106798 2.19812889 0 0 Z " fill="#393737" transform="translate(322,256)"/>
<path d="M0 0 C1.4540625 1.2065625 1.4540625 1.2065625 2.9375 2.4375 C7.10034446 5.45726832 10.95529215 5.87416828 16 6 C15.67 6.66 15.34 7.32 15 8 C12.69 8 10.38 8 8 8 C8.66 8.33 9.32 8.66 10 9 C10 9.99 10 10.98 10 12 C9.21625 11.979375 8.4325 11.95875 7.625 11.9375 C5.01885039 11.81315937 5.01885039 11.81315937 3 13 C2.34 12.34 1.68 11.68 1 11 C1.66 11 2.32 11 3 11 C2.67 8.69 2.34 6.38 2 4 C1.01 4 0.02 4 -1 4 C-0.67 2.68 -0.34 1.36 0 0 Z " fill="#43413E" transform="translate(370,263)"/>
<path d="M0 0 C7.92 0 15.84 0 24 0 C23.67 1.32 23.34 2.64 23 4 C23 3.01 23 2.02 23 1 C17.06 1.33 11.12 1.66 5 2 C4.67 3.98 4.34 5.96 4 8 C2 9 2 9 -1 9 C-2 6 -2 6 0 0 Z " fill="#3E3B3C" transform="translate(282,160)"/>
<path d="M0 0 C2.97 0.495 2.97 0.495 6 1 C6 2.65 6 4.3 6 6 C4.68 4.68 3.36 3.36 2 2 C2 9.92 2 17.84 2 26 C1.01 25.67 0.02 25.34 -1 25 C-1.02727345 22.33326258 -1.04696948 19.66681131 -1.0625 17 C-1.07087891 16.25621094 -1.07925781 15.51242188 -1.08789062 14.74609375 C-1.10966272 9.73851156 -0.71541549 4.95720968 0 0 Z " fill="#535251" transform="translate(348,160)"/>
<path d="M0 0 C0.66 0.66 1.32 1.32 2 2 C3.98 1.34 5.96 0.68 8 0 C8 3.3 8 6.6 8 10 C6.68 10 5.36 10 4 10 C3.34 9.01 2.68 8.02 2 7 C1.01 7.495 1.01 7.495 0 8 C0 5.36 0 2.72 0 0 Z " fill="#383736" transform="translate(392,253)"/>
<path d="M0 0 C2.875 -0.125 2.875 -0.125 6 0 C8 2 8 2 8.125 5.625 C8.08375 6.73875 8.0425 7.8525 8 9 C5.69 9.66 3.38 10.32 1 11 C0.67 12.65 0.34 14.3 0 16 C-0.33 16 -0.66 16 -1 16 C-1.33 13.36 -1.66 10.72 -2 8 C0.64 8 3.28 8 6 8 C5.34 7.34 4.68 6.68 4 6 C4 4.68 4 3.36 4 2 C2.68 1.34 1.36 0.68 0 0 Z " fill="#434041" transform="translate(326,229)"/>
<path d="M0 0 C0.33 0.99 0.66 1.98 1 3 C0.67 3.66 0.34 4.32 0 5 C1.32 5.33 2.64 5.66 4 6 C3.67 7.98 3.34 9.96 3 12 C2.360625 12.103125 1.72125 12.20625 1.0625 12.3125 C0.0415625 12.6528125 0.0415625 12.6528125 -1 13 C-1.33 13.99 -1.66 14.98 -2 16 C-2.33 16 -2.66 16 -3 16 C-3.45496035 10.23716896 -1.79099852 5.39431697 0 0 Z " fill="#191516" transform="translate(295,228)"/>
<path d="M0 0 C0.99 0 1.98 0 3 0 C3 1.32 3 2.64 3 4 C3.99 4 4.98 4 6 4 C6.93423645 7.01031744 7.04449911 7.86650268 6 11 C3.08482708 9.92598892 1.22189824 9.22189824 -1 7 C-1.1875 3.9375 -1.1875 3.9375 -1 1 C-0.67 0.67 -0.34 0.34 0 0 Z " fill="#1A1818" transform="translate(367,263)"/>
<path d="M0 0 C0.99 0 1.98 0 3 0 C2.49396008 2.16874252 2.00016187 3.99967627 1 6 C2.32 6.66 3.64 7.32 5 8 C5 9.65 5 11.3 5 13 C4.34 12.34 3.68 11.68 3 11 C2.01 11 1.02 11 0 11 C-0.33 11.66 -0.66 12.32 -1 13 C-1.22245393 11.39773045 -1.42746669 9.79303233 -1.625 8.1875 C-1.74101562 7.29417969 -1.85703125 6.40085938 -1.9765625 5.48046875 C-2 3 -2 3 0 0 Z " fill="#121110" transform="translate(394,244)"/>
<path d="M0 0 C0.50789062 0.33773437 1.01578125 0.67546875 1.5390625 1.0234375 C5.59911488 3.65410814 9.287806 5.70414665 14 7 C11.64561267 8.42944945 10.51967567 9.08661261 7.75 8.625 C7.1725 8.41875 6.595 8.2125 6 8 C6 8.66 6 9.32 6 10 C4.125 9.5 4.125 9.5 2 8 C1.01505446 5.34822355 0.54087618 2.79452693 0 0 Z " fill="#383737" transform="translate(144,197)"/>
<path d="M0 0 C2 1.375 2 1.375 4 3 C4 3.66 4 4.32 4 5 C3.01 5.66 2.02 6.32 1 7 C0.34 8.32 -0.32 9.64 -1 11 C-3.475 7.04 -3.475 7.04 -6 3 C-4.02 3 -2.04 3 0 3 C0 2.01 0 1.02 0 0 Z " fill="#353433" transform="translate(366,258)"/>
<path d="M0 0 C2 2 2 2 2 5 C1 7.1875 1 7.1875 0 9 C-0.99 8.67 -1.98 8.34 -3 8 C-3.33 9.65 -3.66 11.3 -4 13 C-4.33 13 -4.66 13 -5 13 C-5.29363808 8.00815264 -5.07836372 5.02555256 -2 1 C-1.34 0.67 -0.68 0.34 0 0 Z " fill="#312F2F" transform="translate(126,173)"/>
<path d="M0 0 C0.99 0.99 1.98 1.98 3 3 C3 3.66 3 4.32 3 5 C3.99 5 4.98 5 6 5 C5.67 6.65 5.34 8.3 5 10 C4.67 9.34 4.34 8.68 4 8 C3.236875 8 2.47375 8 1.6875 8 C-0.20833333 8 -2.10416667 8 -4 8 C-2.68 5.36 -1.36 2.72 0 0 Z " fill="#32312C" transform="translate(393,258)"/>
<path d="M0 0 C0 1.65 0 3.3 0 5 C-0.99 5.495 -0.99 5.495 -2 6 C-2.309375 6.66 -2.61875 7.32 -2.9375 8 C-4 10 -4 10 -7 11 C-6.34 7.7 -5.68 4.4 -5 1 C-2 0 -2 0 0 0 Z " fill="#211E1E" transform="translate(295,248)"/>
<path d="M0 0 C1.07438244 3.986758 1.89862769 7.91164881 1 12 C-0.81270232 14.20378096 -2.58857563 15.39238375 -5 17 C-4.31063929 13.08878502 -3.21749819 9.44491404 -1.9375 5.6875 C-1.57527344 4.61886719 -1.21304687 3.55023438 -0.83984375 2.44921875 C-0.56269531 1.64097656 -0.28554688 0.83273438 0 0 Z " fill="#494748" transform="translate(259,227)"/>
<path d="M0 0 C1.4540625 0.0309375 1.4540625 0.0309375 2.9375 0.0625 C2.9375 0.7225 2.9375 1.3825 2.9375 2.0625 C3.5975 2.0625 4.2575 2.0625 4.9375 2.0625 C5.125 5.4375 5.125 5.4375 4.9375 9.0625 C1.9375 11.0625 1.9375 11.0625 -0.25 10.6875 C-0.848125 10.48125 -1.44625 10.275 -2.0625 10.0625 C-1.0725 10.0625 -0.0825 10.0625 0.9375 10.0625 C0.9375 9.4025 0.9375 8.7425 0.9375 8.0625 C1.5975 8.0625 2.2575 8.0625 2.9375 8.0625 C2.9375 6.7425 2.9375 5.4225 2.9375 4.0625 C1.9475 4.3925 0.9575 4.7225 -0.0625 5.0625 C-0.0625 4.0725 -0.0625 3.0825 -0.0625 2.0625 C-1.3825 1.7325 -2.7025 1.4025 -4.0625 1.0625 C-3.0625 0.0625 -3.0625 0.0625 0 0 Z " fill="#545050" transform="translate(359.0625,228.9375)"/>
<path d="M0 0 C2.09749995 2.35968744 2.96905704 3.54616994 3.1875 6.75 C3.125625 7.4925 3.06375 8.235 3 9 C2.01 9 1.02 9 0 9 C-0.99 10.485 -0.99 10.485 -2 12 C-2 10.35 -2 8.7 -2 7 C-2.66 6.67 -3.32 6.34 -4 6 C-4 5.01 -4 4.02 -4 3 C-3.01 2.67 -2.02 2.34 -1 2 C-0.67 1.34 -0.34 0.68 0 0 Z " fill="#151212" transform="translate(390,220)"/>
<path d="M0 0 C0 1.32 0 2.64 0 4 C-2.33317216 4.77772405 -4.61435923 5.42415568 -7 6 C-7.33 4.35 -7.66 2.7 -8 1 C-5.29120665 -0.35439668 -2.99066732 -0.06501451 0 0 Z " fill="#1A1719" transform="translate(373,241)"/>
<path d="M0 0 C0.66 0.33 1.32 0.66 2 1 C1.34 2.32 0.68 3.64 0 5 C-1.32 4.34 -2.64 3.68 -4 3 C-3.01 3 -2.02 3 -1 3 C-0.67 2.01 -0.34 1.02 0 0 Z M-5 5 C-3.33388095 4.957279 -1.66617115 4.95936168 0 5 C1 6 1 6 1.0625 9.5625 C1.041875 10.696875 1.02125 11.83125 1 13 C-2.00527647 11.49736177 -1.97217614 9.08347159 -3 6 C-3.66 5.67 -4.32 5.34 -5 5 Z " fill="#151311" transform="translate(324,232)"/>
<path d="M0 0 C1.90318884 2.85478326 2.4619099 4.41941308 3.125 7.6875 C3.29257813 8.49574219 3.46015625 9.30398437 3.6328125 10.13671875 C3.75398437 10.75160156 3.87515625 11.36648437 4 12 C1.5625 11.3125 1.5625 11.3125 -1 10 C-1.8125 7.375 -1.8125 7.375 -2 5 C-1.34 5 -0.68 5 0 5 C0 3.35 0 1.7 0 0 Z " fill="#3D3D3B" transform="translate(244,223)"/>
<path d="M0 0 C5.21202675 2.52704327 8.3880132 6.61773359 12 11 C11.01 11.33 10.02 11.66 9 12 C9 11.34 9 10.68 9 10 C8.34 10 7.68 10 7 10 C4.4132178 7.93057424 3.5590888 6.24271506 3 3 C2.01 3 1.02 3 0 3 C0 2.01 0 1.02 0 0 Z " fill="#4D4C4B" transform="translate(186,214)"/>
<path d="M0 0 C2.64 0 5.28 0 8 0 C8 1.32 8 2.64 8 4 C8.66 4 9.32 4 10 4 C10 4.66 10 5.32 10 6 C7.69 5.67 5.38 5.34 3 5 C3 4.34 3 3.68 3 3 C2.01 3 1.02 3 0 3 C0 2.01 0 1.02 0 0 Z M1 1 C2.485 1.99 2.485 1.99 4 3 C4.33 2.34 4.66 1.68 5 1 C3.68 1 2.36 1 1 1 Z " fill="#232121" transform="translate(304,270)"/>
<path d="M0 0 C0.66 0.33 1.32 0.66 2 1 C1.01 2.98 0.02 4.96 -1 7 C-1.66 7 -2.32 7 -3 7 C-3.33 7.66 -3.66 8.32 -4 9 C-4.66 9 -5.32 9 -6 9 C-5.67 7.35 -5.34 5.7 -5 4 C-4.34 4 -3.68 4 -3 4 C-3 3.34 -3 2.68 -3 2 C-2.01 1.34 -1.02 0.68 0 0 Z " fill="#1A1718" transform="translate(321,262)"/>
<path d="M0 0 C-0.61538462 6.52307692 -0.61538462 6.52307692 -2.5625 8.9375 C-3.036875 9.288125 -3.51125 9.63875 -4 10 C-6.125 5.375 -6.125 5.375 -5 2 C-1.63157895 0 -1.63157895 0 0 0 Z " fill="#333133" transform="translate(199,249)"/>
<path d="M0 0 C0.99 0 1.98 0 3 0 C3.33 0.99 3.66 1.98 4 3 C4.66 3 5.32 3 6 3 C6 4.65 6 6.3 6 8 C5.01 8.33 4.02 8.66 3 9 C1 8 1 8 0.375 6.125 C0.00857337 4.04858241 0 2.10716299 0 0 Z " fill="#191615" transform="translate(379,209)"/>
<path d="M0 0 C1.76462683 3.08809695 2 4.23312136 2 8 C2.99 8.33 3.98 8.66 5 9 C3.68 10.32 2.36 11.64 1 13 C0.67 10.69 0.34 8.38 0 6 C-1.32 6.33 -2.64 6.66 -4 7 C-2.68 4.69 -1.36 2.38 0 0 Z " fill="#484548" transform="translate(346,189)"/>
<path d="M0 0 C0.33 0.66 0.66 1.32 1 2 C1.99 2 2.98 2 4 2 C4 1.34 4 0.68 4 0 C5.32 0.33 6.64 0.66 8 1 C6.40233897 1.86627399 4.79660056 2.71766465 3.1875 3.5625 C2.29417969 4.03816406 1.40085938 4.51382812 0.48046875 5.00390625 C-2 6 -2 6 -5 5 C-4.67 4.34 -4.34 3.68 -4 3 C-3.34 3 -2.68 3 -2 3 C-2 2.34 -2 1.68 -2 1 C-1.34 0.67 -0.68 0.34 0 0 Z " fill="#3A3738" transform="translate(181,266)"/>
<path d="M0 0 C3 0.25 3 0.25 5 2.25 C2.36 2.58 -0.28 2.91 -3 3.25 C-2.67 4.9 -2.34 6.55 -2 8.25 C-2.99 7.92 -3.98 7.59 -5 7.25 C-5.125 4.875 -5.125 4.875 -5 2.25 C-3 0.25 -3 0.25 0 0 Z " fill="#434042" transform="translate(368,238.75)"/>
<path d="M0 0 C0.99 0.99 1.98 1.98 3 3 C2.75546876 6.34192692 2.39456443 7.60543557 0 10 C-2.625 10.125 -2.625 10.125 -5 10 C-3.68 9.67 -2.36 9.34 -1 9 C-0.67 6.03 -0.34 3.06 0 0 Z " fill="#454040" transform="translate(371,220)"/>
<path d="M0 0 C1.98 0.99 3.96 1.98 6 3 C6 3.99 6 4.98 6 6 C2.25 7.125 2.25 7.125 0 6 C-0.6875 4.0625 -0.6875 4.0625 -1 2 C-0.67 1.34 -0.34 0.68 0 0 Z " fill="#171516" transform="translate(360,255)"/>
<path d="M0 0 C0.78375 0.04125 1.5675 0.0825 2.375 0.125 C1.900625 0.475625 1.42625 0.82625 0.9375 1.1875 C-1.30373825 3.96663543 -1.29617658 6.6394717 -1.625 10.125 C-2.615 9.795 -3.605 9.465 -4.625 9.125 C-4.75 5.75 -4.75 5.75 -4.625 2.125 C-2.625 0.125 -2.625 0.125 0 0 Z " fill="#373334" transform="translate(377.625,228.875)"/>
<path d="M0 0 C2.08304538 -0.05418326 4.16649768 -0.09287551 6.25 -0.125 C7.99023438 -0.15980469 7.99023438 -0.15980469 9.765625 -0.1953125 C12.82786046 -0.0103949 14.44202751 0.39176977 17 2 C12.91721966 3.08318662 9.82121165 2.83473185 5.6875 2.0625 C4.61886719 1.86785156 3.55023438 1.67320312 2.44921875 1.47265625 C1.64097656 1.31667969 0.83273438 1.16070312 0 1 C0 0.67 0 0.34 0 0 Z " fill="#81817F" transform="translate(151,158)"/>
<path d="M0 0 C0.78375 0.04125 1.5675 0.0825 2.375 0.125 C1.385 0.62 1.385 0.62 0.375 1.125 C0.065625 2.115 -0.24375 3.105 -0.5625 4.125 C-0.913125 5.115 -1.26375 6.105 -1.625 7.125 C-2.615 7.455 -3.605 7.785 -4.625 8.125 C-4.75 5.25 -4.75 5.25 -4.625 2.125 C-2.625 0.125 -2.625 0.125 0 0 Z " fill="#706F6E" transform="translate(319.625,219.875)"/>
<path d="M0 0 C1.40503535 2.59391142 2.57705808 5.26973914 3.6875 8 C3.95949219 8.66 4.23148438 9.32 4.51171875 10 C5.08433496 12.34543601 4.75352292 13.73437404 4 16 C4 15.01 4 14.02 4 13 C3.01 12.67 2.02 12.34 1 12 C0.01751476 7.9472484 -0.08159574 4.16138263 0 0 Z " fill="#595655" transform="translate(229,179)"/>
<path d="M0 0 C0 0.66 0 1.32 0 2 C-3.96 2 -7.92 2 -12 2 C-12 1.34 -12 0.68 -12 0 C-3.42857143 -1.28571429 -3.42857143 -1.28571429 0 0 Z " fill="#191816" transform="translate(356,254)"/>
<path d="M0 0 C1.65 0.33 3.3 0.66 5 1 C5.125 3.875 5.125 3.875 5 7 C4.34 7.66 3.68 8.32 3 9 C2.896875 8.360625 2.79375 7.72125 2.6875 7.0625 C2.460625 6.381875 2.23375 5.70125 2 5 C1.01 4.67 0.02 4.34 -1 4 C-0.67 2.68 -0.34 1.36 0 0 Z " fill="#454243" transform="translate(296,229)"/>
<path d="M0 0 C-0.33 1.32 -0.66 2.64 -1 4 C-2.65 4 -4.3 4 -6 4 C-6.33 3.01 -6.66 2.02 -7 1 C-3.375 -1.125 -3.375 -1.125 0 0 Z " fill="#434240" transform="translate(140,163)"/>
<path d="M0 0 C0.33 1.32 0.66 2.64 1 4 C1.66 4 2.32 4 3 4 C3.33 4.99 3.66 5.98 4 7 C2.02 7.99 2.02 7.99 0 9 C0 8.01 0 7.02 0 6 C-0.66 5.67 -1.32 5.34 -2 5 C-2 2 -2 2 0 0 Z " fill="#3A3839" transform="translate(388,267)"/>
<path d="M0 0 C0.66 0 1.32 0 2 0 C2.33 2.31 2.66 4.62 3 7 C2.01 7.33 1.02 7.66 0 8 C-0.79953138 4.71303767 -1.09658936 3.28976808 0 0 Z " fill="#1D1B1E" transform="translate(292,258)"/>
<path d="M0 0 C1 3 1 3 -0.3125 5.6875 C-0.869375 6.450625 -1.42625 7.21375 -2 8 C-2.66 8 -3.32 8 -4 8 C-4 8.66 -4 9.32 -4 10 C-4.99 10.33 -5.98 10.66 -7 11 C-7 10.34 -7 9.68 -7 9 C-6.34 9 -5.68 9 -5 9 C-4.731875 8.2575 -4.46375 7.515 -4.1875 6.75 C-3.05770579 4.13363446 -1.79106798 2.19812889 0 0 Z " fill="#534F50" transform="translate(322,256)"/>
<path d="M0 0 C0.33 0 0.66 0 1 0 C3.28571429 8.42857143 3.28571429 8.42857143 3 13 C2.01 13.495 2.01 13.495 1 14 C-0.20568053 9.32798795 -0.09382426 4.78503708 0 0 Z " fill="#484444" transform="translate(393,225)"/>
<path d="M0 0 C0.66 0.33 1.32 0.66 2 1 C2.38749213 3.32495277 2.71758117 5.6599583 3 8 C3.33 8.99 3.66 9.98 4 11 C2 11 2 11 0.3125 9.75 C-1 8 -1 8 -0.75 5.9375 C0 4 0 4 1 2 C0.34 1.67 -0.32 1.34 -1 1 C-0.67 0.67 -0.34 0.34 0 0 Z " fill="#151311" transform="translate(227,178)"/>
<path d="M0 0 C1.80330533 3.60661066 2.46599103 6.08393425 3 10 C2.34 10 1.68 10 1 10 C1 10.66 1 11.32 1 12 C0.34 11.67 -0.32 11.34 -1 11 C-0.67 7.37 -0.34 3.74 0 0 Z " fill="#525052" transform="translate(295,255)"/>
<path d="M0 0 C0.66 0 1.32 0 2 0 C2.33 2.31 2.66 4.62 3 7 C2.01 7.33 1.02 7.66 0 8 C-0.79953138 4.71303767 -1.09658936 3.28976808 0 0 Z " fill="#141213" transform="translate(260,228)"/>
<path d="M0 0 C-1.28965176 1.37562854 -2.62689293 2.70766393 -4 4 C-4.66 4 -5.32 4 -6 4 C-6.33 5.32 -6.66 6.64 -7 8 C-7.33 8 -7.66 8 -8 8 C-8.36075949 3.55063291 -8.36075949 3.55063291 -6.8125 1.1875 C-4.44017475 -0.36678206 -2.77958655 -0.22537188 0 0 Z " fill="#4F4E4F" transform="translate(371,219)"/>
<path d="M0 0 C-0.66 1.65 -1.32 3.3 -2 5 C-3.32 5 -4.64 5 -6 5 C-5.625 3.0625 -5.625 3.0625 -5 1 C-3 0 -3 0 0 0 Z " fill="#333231" transform="translate(321,269)"/>
<path d="M0 0 C0 3.3 0 6.6 0 10 C-0.33 8.68 -0.66 7.36 -1 6 C-2.9837767 4.71563266 -2.9837767 4.71563266 -5 4 C-1.125 0 -1.125 0 0 0 Z " fill="#676361" transform="translate(400,253)"/>
<path d="M0 0 C1.65 0 3.3 0 5 0 C5.33 1.32 5.66 2.64 6 4 C4.35 4.33 2.7 4.66 1 5 C0.67 3.35 0.34 1.7 0 0 Z " fill="#191515" transform="translate(376,230)"/>
<path d="M0 0 C2.875 -0.125 2.875 -0.125 6 0 C6.66 0.66 7.32 1.32 8 2 C7.67 2.99 7.34 3.98 7 5 C6.01 5.33 5.02 5.66 4 6 C4 4.68 4 3.36 4 2 C2.68 1.34 1.36 0.68 0 0 Z " fill="#7B7676" transform="translate(326,229)"/>
<path d="M0 0 C0.66 0 1.32 0 2 0 C1.9071875 1.175625 1.9071875 1.175625 1.8125 2.375 C1.874375 3.24125 1.93625 4.1075 2 5 C2.99 5.66 3.98 6.32 5 7 C3.68 7 2.36 7 1 7 C0.34 6.34 -0.32 5.68 -1 5 C-0.625 2.375 -0.625 2.375 0 0 Z " fill="#373333" transform="translate(306,209)"/>
<path d="M0 0 C0.66 0.66 1.32 1.32 2 2 C3.32 2.66 4.64 3.32 6 4 C3.03 4.66 0.06 5.32 -3 6 C-3.33 5.34 -3.66 4.68 -4 4 C-2.68 3.67 -1.36 3.34 0 3 C0 2.01 0 1.02 0 0 Z " fill="#504E4E" transform="translate(314,209)"/>
<path d="M0 0 C3.2542015 2.83430453 4.5206753 4.68607774 5 9 C4.34 8.67 3.68 8.34 3 8 C3 7.01 3 6.02 3 5 C1.68 4.34 0.36 3.68 -1 3 C-0.67 2.01 -0.34 1.02 0 0 Z " fill="#585756" transform="translate(388,215)"/>
<path d="M0 0 C1.96301592 3.50538557 2.95902388 7.13351728 4 11 C3.34 10.67 2.68 10.34 2 10 C2 9.01 2 8.02 2 7 C1.01 6.67 0.02 6.34 -1 6 C-0.67 4.02 -0.34 2.04 0 0 Z " fill="#696966" transform="translate(235,197)"/>
<path d="M0 0 C0.99 0.33 1.98 0.66 3 1 C2.34 3.31 1.68 5.62 1 8 C0.34 7.34 -0.32 6.68 -1 6 C-0.625 2.875 -0.625 2.875 0 0 Z " fill="#3F3C3D" transform="translate(122,198)"/>
<path d="M0 0 C2 4 2 4 1.3125 6.1875 C0 8 0 8 -3 9 C-2.01 6.03 -1.02 3.06 0 0 Z " fill="#565554" transform="translate(277,176)"/>
</svg>
