<?xml version="1.0" encoding="UTF-8"?>
<svg xmlns="http://www.w3.org/2000/svg" version="1.1" width="35" height="36" style="background: transparent;">

<path d="M0 0 C1.02996094 -0.00128906 2.05992188 -0.00257812 3.12109375 -0.00390625 C4.74724609 0.00189453 4.74724609 0.00189453 6.40625 0.0078125 C7.49035156 0.00394531 8.57445312 0.00007812 9.69140625 -0.00390625 C10.72136719 -0.00261719 11.75132813 -0.00132813 12.8125 0 C14.24045898 0.00169189 14.24045898 0.00169189 15.69726562 0.00341797 C17.90625 0.1328125 17.90625 0.1328125 18.90625 1.1328125 C19.03125 4.1328125 19.03125 4.1328125 18.90625 7.1328125 C17.90625 8.1328125 17.90625 8.1328125 15.58959961 8.24633789 C14.58936768 8.24110107 13.58913574 8.23586426 12.55859375 8.23046875 C11.47900391 8.22724609 10.39941406 8.22402344 9.28710938 8.22070312 C8.15080078 8.21232422 7.01449219 8.20394531 5.84375 8.1953125 C4.70357422 8.19080078 3.56339844 8.18628906 2.38867188 8.18164062 C-0.43885351 8.16980997 -3.2662764 8.1533266 -6.09375 8.1328125 C-6.13616723 5.79986475 -6.13467937 3.46578683 -6.09375 1.1328125 C-4.40858046 -0.55235704 -2.30607212 0.00273231 0 0 Z " fill="#27272A" transform="translate(11.09375,3.8671875)"/>
<path d="M0 0 C4.43170173 1.51896368 8.03024076 3.92639809 11.8125 6.625 C12.40998047 7.04523437 13.00746094 7.46546875 13.62304688 7.8984375 C15.08520565 8.92779728 16.54304899 9.9632823 18 11 C17.67 11.99 17.34 12.98 17 14 C14.18743719 14.02684312 11.37512759 14.04676188 8.5625 14.0625 C7.76005859 14.07087891 6.95761719 14.07925781 6.13085938 14.08789062 C4.08704779 14.0965143 2.04316098 14.0522815 0 14 C-1 13 -1 13 -1.1328125 10.3125 C-1.13023437 9.219375 -1.12765625 8.12625 -1.125 7 C-1.12757813 5.906875 -1.13015625 4.81375 -1.1328125 3.6875 C-1 1 -1 1 0 0 Z " fill="#27272A" transform="translate(6,15)"/>
<path d="M0 0 C2.5625 0.1875 2.5625 0.1875 4.5625 2.1875 C4.1875 5.3125 4.1875 5.3125 3.5625 8.1875 C1.5825 8.5175 -0.3975 8.8475 -2.4375 9.1875 C-4.4375 6.1875 -4.4375 6.1875 -4.125 3.5625 C-3.16420807 0.24340062 -3.16420807 0.24340062 0 0 Z " fill="#333336" transform="translate(25.4375,13.8125)"/>
</svg>